<svg width="20" height="20" viewBox="0 0 20 20" fill="none" xmlns="http://www.w3.org/2000/svg">
<path d="M9.99987 16.999C10.2651 16.999 10.5194 17.1044 10.707 17.2919C10.8945 17.4795 10.9999 17.7338 10.9999 17.999V18.999C10.9999 19.2642 10.8945 19.5186 10.707 19.7061C10.5194 19.8937 10.2651 19.999 9.99987 19.999C9.73465 19.999 9.4803 19.8937 9.29276 19.7061C9.10523 19.5186 8.99987 19.2642 8.99987 18.999V17.999C8.99987 17.7338 9.10523 17.4795 9.29276 17.2919C9.4803 17.1044 9.73465 16.999 9.99987 16.999ZM16.3639 14.949L17.0709 15.656C17.253 15.8446 17.3538 16.0972 17.3515 16.3594C17.3493 16.6216 17.2441 16.8724 17.0587 17.0578C16.8733 17.2432 16.6225 17.3484 16.3603 17.3507C16.0981 17.353 15.8455 17.2522 15.6569 17.07L14.9499 16.363C14.7677 16.1744 14.6669 15.9218 14.6692 15.6596C14.6715 15.3974 14.7766 15.1466 14.962 14.9612C15.1475 14.7758 15.3983 14.6706 15.6605 14.6684C15.9227 14.6661 16.1753 14.7669 16.3639 14.949ZM3.63587 14.949C3.81583 14.7697 4.0573 14.6655 4.31125 14.6578C4.5652 14.65 4.81258 14.7392 5.00315 14.9073C5.19371 15.0753 5.31317 15.3096 5.33727 15.5625C5.36136 15.8154 5.28828 16.068 5.13287 16.269L5.04987 16.363L4.34287 17.07C4.16291 17.2494 3.92143 17.3535 3.66748 17.3613C3.41354 17.369 3.16616 17.2798 2.97559 17.1118C2.78502 16.9437 2.66556 16.7095 2.64147 16.4565C2.61738 16.2036 2.69046 15.951 2.84587 15.75L2.92887 15.656L3.63587 14.949ZM9.99987 3.99902C11.5912 3.99902 13.1173 4.63116 14.2425 5.75638C15.3677 6.8816 15.9999 8.40772 15.9999 9.99902C15.9999 11.5903 15.3677 13.1164 14.2425 14.2417C13.1173 15.3669 11.5912 15.999 9.99987 15.999C8.40857 15.999 6.88245 15.3669 5.75723 14.2417C4.63201 13.1164 3.99987 11.5903 3.99987 9.99902C3.99987 8.40772 4.63201 6.8816 5.75723 5.75638C6.88245 4.63116 8.40857 3.99902 9.99987 3.99902ZM1.99987 8.99902C2.25475 8.99931 2.4999 9.0969 2.68524 9.27187C2.87057 9.44684 2.9821 9.68598 2.99704 9.94042C3.01198 10.1949 2.92919 10.4454 2.7656 10.6409C2.60201 10.8363 2.36996 10.9619 2.11687 10.992L1.99987 10.999H0.999869C0.744989 10.9987 0.499837 10.9011 0.3145 10.7262C0.129164 10.5512 0.0176337 10.3121 0.0026966 10.0576C-0.0122405 9.80319 0.0705433 9.55264 0.234134 9.35719C0.397724 9.16174 0.629773 9.03613 0.882869 9.00602L0.999869 8.99902H1.99987ZM18.9999 8.99902C19.2651 8.99902 19.5194 9.10438 19.707 9.29192C19.8945 9.47945 19.9999 9.73381 19.9999 9.99902C19.9999 10.2642 19.8945 10.5186 19.707 10.7061C19.5194 10.8937 19.2651 10.999 18.9999 10.999H17.9999C17.7347 10.999 17.4803 10.8937 17.2928 10.7061C17.1052 10.5186 16.9999 10.2642 16.9999 9.99902C16.9999 9.73381 17.1052 9.47945 17.2928 9.29192C17.4803 9.10438 17.7347 8.99902 17.9999 8.99902H18.9999ZM2.92887 2.92802C3.10106 2.75585 3.33016 2.65242 3.57319 2.63713C3.81621 2.62185 4.05647 2.69577 4.24887 2.84502L4.34287 2.92802L5.04987 3.63502C5.22922 3.81498 5.33334 4.05646 5.3411 4.31041C5.34885 4.56436 5.25965 4.81174 5.09162 5.0023C4.92359 5.19287 4.68932 5.31233 4.43639 5.33642C4.18347 5.36052 3.93086 5.28744 3.72987 5.13202L3.63587 5.04902L2.92887 4.34202C2.7414 4.1545 2.63608 3.90019 2.63608 3.63502C2.63608 3.36986 2.7414 3.11555 2.92887 2.92802ZM17.0709 2.92802C17.2583 3.11555 17.3637 3.36986 17.3637 3.63502C17.3637 3.90019 17.2583 4.1545 17.0709 4.34202L16.3639 5.04902C16.2716 5.14453 16.1613 5.22072 16.0393 5.27312C15.9173 5.32553 15.786 5.35312 15.6533 5.35427C15.5205 5.35543 15.3888 5.33013 15.2659 5.27985C15.143 5.22956 15.0314 5.15531 14.9375 5.06142C14.8436 4.96753 14.7693 4.85587 14.719 4.73298C14.6688 4.61008 14.6435 4.4784 14.6446 4.34562C14.6458 4.21284 14.6734 4.08162 14.7258 3.95962C14.7782 3.83762 14.8544 3.72727 14.9499 3.63502L15.6569 2.92802C15.8444 2.74055 16.0987 2.63524 16.3639 2.63524C16.629 2.63524 16.8833 2.74055 17.0709 2.92802ZM9.99987 -0.000976562C10.2651 -0.000976562 10.5194 0.10438 10.707 0.291917C10.8945 0.479453 10.9999 0.733807 10.9999 0.999023V1.99902C10.9999 2.26424 10.8945 2.51859 10.707 2.70613C10.5194 2.89367 10.2651 2.99902 9.99987 2.99902C9.73465 2.99902 9.4803 2.89367 9.29276 2.70613C9.10523 2.51859 8.99987 2.26424 8.99987 1.99902V0.999023C8.99987 0.733807 9.10523 0.479453 9.29276 0.291917C9.4803 0.10438 9.73465 -0.000976562 9.99987 -0.000976562Z" fill="white"/>
</svg>
