<svg width="45" height="46" viewBox="0 0 45 46" fill="none" xmlns="http://www.w3.org/2000/svg">
<g clip-path="url(#clip0_246_3544)">
<path d="M34.0133 7.73926H8.55223C7.87696 7.73926 7.22935 8.00751 6.75186 8.485C6.27437 8.96248 6.00612 9.6101 6.00612 10.2854V35.7465C6.00612 36.4217 6.27437 37.0693 6.75186 37.5468C7.22935 38.0243 7.87696 38.2926 8.55223 38.2926H25.8483C26.1827 38.2931 26.5139 38.2274 26.8228 38.0993C27.1317 37.9713 27.4122 37.7833 27.6481 37.5462L35.8131 29.3812C36.0501 29.1453 36.2381 28.8648 36.3662 28.5559C36.4943 28.247 36.56 27.9158 36.5594 27.5814V10.2854C36.5594 9.6101 36.2912 8.96248 35.8137 8.485C35.3362 8.00751 34.6886 7.73926 34.0133 7.73926ZM16.1906 16.6506H26.375C26.7126 16.6506 27.0364 16.7848 27.2752 17.0235C27.5139 17.2623 27.6481 17.5861 27.6481 17.9237C27.6481 18.2613 27.5139 18.5851 27.2752 18.8239C27.0364 19.0626 26.7126 19.1968 26.375 19.1968H16.1906C15.8529 19.1968 15.5291 19.0626 15.2904 18.8239C15.0516 18.5851 14.9175 18.2613 14.9175 17.9237C14.9175 17.5861 15.0516 17.2623 15.2904 17.0235C15.5291 16.7848 15.8529 16.6506 16.1906 16.6506ZM21.2828 29.3812H16.1906C15.8529 29.3812 15.5291 29.2471 15.2904 29.0083C15.0516 28.7696 14.9175 28.4458 14.9175 28.1081C14.9175 27.7705 15.0516 27.4467 15.2904 27.2079C15.5291 26.9692 15.8529 26.8351 16.1906 26.8351H21.2828C21.6204 26.8351 21.9442 26.9692 22.183 27.2079C22.4217 27.4467 22.5558 27.7705 22.5558 28.1081C22.5558 28.4458 22.4217 28.7696 22.183 29.0083C21.9442 29.2471 21.6204 29.3812 21.2828 29.3812ZM16.1906 24.289C15.8529 24.289 15.5291 24.1548 15.2904 23.9161C15.0516 23.6774 14.9175 23.3536 14.9175 23.0159C14.9175 22.6783 15.0516 22.3545 15.2904 22.1157C15.5291 21.877 15.8529 21.7429 16.1906 21.7429H26.375C26.7126 21.7429 27.0364 21.877 27.2752 22.1157C27.5139 22.3545 27.6481 22.6783 27.6481 23.0159C27.6481 23.3536 27.5139 23.6774 27.2752 23.9161C27.0364 24.1548 26.7126 24.289 26.375 24.289H16.1906ZM26.375 35.2197V28.1081H33.4882L26.375 35.2197Z" fill="#394132"/>
<path d="M45.8075 7.95759L45.8075 7.95665C45.8058 6.47712 45.2174 5.05867 44.1712 4.01248C43.125 2.9663 41.7065 2.37782 40.227 2.37615H40.2261C38.7556 2.37615 37.4058 2.88834 36.3973 3.80586C35.3889 2.88834 34.039 2.37615 32.5686 2.37615L32.5676 2.37615C31.0881 2.37782 29.6697 2.9663 28.6235 4.01248C27.5773 5.05867 26.9888 6.47712 26.9871 7.95665V7.95759C26.9871 11.0279 29.2342 13.6684 31.2878 15.4668C33.3778 17.2972 35.5043 18.4598 35.7148 18.5715C35.9247 18.6838 36.1592 18.7427 36.3973 18.7427C36.6355 18.7427 36.8699 18.6839 37.0798 18.5715C37.2902 18.4599 39.4168 17.2973 41.5069 15.4668C43.5604 13.6684 45.8075 11.0279 45.8075 7.95759Z" fill="#394132" stroke="#F4F0E5" stroke-width="1.66763"/>
</g>
<defs>
<clipPath id="clip0_246_3544">
<rect width="44.8457" height="44.8457" fill="white" transform="translate(0 0.654297)"/>
</clipPath>
</defs>
</svg>
