<svg width="45" height="46" viewBox="0 0 45 46" fill="none" xmlns="http://www.w3.org/2000/svg">
<g clip-path="url(#clip0_246_3549)">
<path fill-rule="evenodd" clip-rule="evenodd" d="M4.13321 17.8863C4.03397 17.0368 3.98442 16.6127 4.00435 16.26H4.00835C4.06183 15.3632 4.41567 14.5105 5.01286 13.8393C5.61006 13.168 6.41583 12.7174 7.30035 12.56C7.64835 12.5 8.07835 12.5 8.93835 12.5H14.4529V16.3889L11.9999 18.7222V26.5H19.7777V18.7222L17.4444 16.3889V12.5H30.0703C30.9303 12.5 31.3623 12.5 31.7103 12.56C32.1438 12.6376 32.5614 12.7863 32.9463 13H37.5043C39.4935 13 41.4011 13.7902 42.8076 15.1967C44.2142 16.6032 45.0043 18.5109 45.0043 20.5C45.0043 22.4891 44.2142 24.3968 42.8076 25.8033C41.4011 27.2098 39.4935 28 37.5043 28H33.1743C32.301 29.9359 30.8877 31.5788 29.1041 32.7317C27.3205 33.8846 25.2421 34.4986 23.1183 34.5H15.8903C13.1872 34.4997 10.5783 33.5068 8.55899 31.7098C6.53966 29.9128 5.25053 27.4368 4.93635 24.752L4.13435 17.896L4.13321 17.8863ZM35.0063 16.26C35.001 16.1733 34.993 16.0867 34.9823 16H37.5043C38.6978 16 39.8424 16.4741 40.6863 17.318C41.5302 18.1619 42.0043 19.3065 42.0043 20.5C42.0043 21.6935 41.5302 22.8381 40.6863 23.682C39.8424 24.5259 38.6978 25 37.5043 25H34.0443L34.0763 24.752L34.8783 17.896C34.9783 17.04 35.0263 16.614 35.0063 16.26Z" fill="#394132"/>
<path d="M41.9866 8.24763L41.9866 8.24669C41.9849 6.76716 41.3964 5.34871 40.3502 4.30252C39.304 3.25633 37.8856 2.66785 36.406 2.66619H36.4051C34.9347 2.66619 33.5848 3.17838 32.5764 4.0959C31.5679 3.17838 30.2181 2.66619 28.7476 2.66619L28.7467 2.66619C27.2672 2.66785 25.8487 3.25633 24.8025 4.30252C23.7563 5.34871 23.1679 6.76716 23.1662 8.24669V8.24763C23.1662 11.3179 25.4133 13.9585 27.4668 15.7569C29.5568 17.5872 31.6833 18.7498 31.8938 18.8615C32.1038 18.9739 32.3382 19.0327 32.5764 19.0327C32.8145 19.0327 33.049 18.9739 33.2589 18.8615C33.4692 18.7499 35.5958 17.5873 37.6859 15.7569C39.7395 13.9585 41.9866 11.3179 41.9866 8.24763Z" fill="#394132" stroke="#F4F0E5" stroke-width="1.66763"/>
</g>
<defs>
<clipPath id="clip0_246_3549">
<rect width="44.8457" height="44.8457" fill="white" transform="translate(0 0.5)"/>
</clipPath>
</defs>
</svg>
