<svg width="111" height="41" viewBox="0 0 111 41" fill="none" xmlns="http://www.w3.org/2000/svg">
<path d="M53.6954 14.6111C52.5441 15.9436 50.3182 18.8922 50.6253 20.0269C51.009 21.4453 59.9638 21.1874 61.6268 16.2874C63.2898 11.3875 62.3943 4.68231 58.9404 1.71655C55.4864 -1.24921 57.4053 5.84282 53.3117 7.51912C49.2181 9.19542 45.8921 12.419 46.9155 16.0295C47.9389 19.64 49.9857 19.8979 49.0902 21.961C48.1947 24.0242 45.8921 28.2794 46.6596 33.1793C47.4272 38.0793 44.357 22.7347 38.8563 23.1215C33.3555 23.5084 40.3914 23.5084 41.9264 26.732C43.4615 29.9557 33.9952 28.0215 32.716 23.1215C31.4367 18.2216 34.1231 13.4506 34.7627 13.3216C35.4024 13.1927 34.7627 16.6742 37.577 16.9321C40.3914 17.19 47.6303 22.5556 44.357 25.4426C43.3336 26.3452 41.9264 23.6373 45.8921 22.7347C49.3365 21.9507 50.1136 19.2623 50.1136 18.3505C50.1136 16.2874 52.4161 14.6111 53.6954 14.6111Z" stroke="#B8CFA3" stroke-width="1.0825" stroke-linecap="round" stroke-linejoin="round"/>
<path d="M10.3855 23.0761V26.1096H6.9772V35.1211H3.67596V26.1096H0.267667V23.0761H10.3855ZM21.1489 35.1211H14.8855C12.8512 35.1211 12.0304 34.0504 12.0304 32.3552V25.842C12.0304 24.1467 12.8512 23.0761 14.8855 23.0761H21.0597V26.0204H15.3316V27.6264H20.6493V30.5707H15.3316V32.1768H21.1489V35.1211ZM22.4401 35.1211L25.5451 24.9854C25.9912 23.5043 27.2403 22.8084 28.4894 22.8084C29.7385 22.8084 30.9877 23.5043 31.4338 24.9854L34.5387 35.1211H31.1661L30.6129 33.0868H26.3838L25.8127 35.1211H22.4401ZM28.3645 25.949L27.2046 30.1425H29.7921L28.65 25.949C28.6143 25.8241 28.5786 25.7706 28.5073 25.7706C28.4359 25.7706 28.4002 25.8241 28.3645 25.949ZM55.0746 35.1032L51.7734 35.1211V23.0761H56.3951C59.964 23.0761 62.0518 24.7713 62.0518 27.5729C62.0518 30.4637 60.0711 32.1768 56.5736 32.1768H55.0746V35.1032ZM56.4844 26.1096H55.0746V29.1432H56.4844C57.9654 29.1432 58.6614 28.59 58.6614 27.5729C58.6614 26.6271 57.9119 26.1096 56.4844 26.1096ZM62.8935 35.1211L65.9984 24.9854C66.4445 23.5043 67.6936 22.8084 68.9427 22.8084C70.1919 22.8084 71.441 23.5043 71.8871 24.9854L74.992 35.1211H71.6194L71.0662 33.0868H66.8371L66.2661 35.1211H62.8935ZM68.8178 25.949L67.6579 30.1425H70.2454L69.1033 25.949C69.0677 25.8241 69.032 25.7706 68.9606 25.7706C68.8892 25.7706 68.8535 25.8241 68.8178 25.949ZM81.4916 35.3352C77.7086 35.3352 76.0133 33.2474 76.0133 29.6785V23.0761H79.3146V29.5893C79.3146 31.4451 80.0283 32.2124 81.4916 32.2124C82.9727 32.2124 83.6865 31.4451 83.6865 29.5893V23.0761H86.9877V29.6785C86.9877 33.2474 85.2568 35.3352 81.4916 35.3352ZM93.8332 35.4066C91.5491 35.4066 89.7646 34.4608 88.9438 32.6764L91.6918 31.3024C92.0309 32.034 92.7089 32.373 93.8332 32.373C94.7075 32.373 95.3678 32.1054 95.3678 31.5344C95.3678 30.8206 94.654 30.7135 93.5655 30.5529C91.7632 30.2852 89.1222 29.5893 89.1222 26.7163C89.1222 24.5036 91.1029 22.8084 93.7796 22.8084C95.8853 22.8084 97.6697 23.7542 98.4906 25.5386L95.7425 26.9126C95.4035 26.3238 94.7611 25.842 93.6369 25.842C92.8517 25.842 92.4234 26.0918 92.4234 26.5914C92.4234 27.2695 93.2086 27.4837 94.3863 27.6621C96.1708 27.9298 98.669 28.6079 98.669 31.4987C98.669 33.7114 96.5098 35.4066 93.8332 35.4066ZM109.851 35.1211H103.587C101.553 35.1211 100.732 34.0504 100.732 32.3552V25.842C100.732 24.1467 101.553 23.0761 103.587 23.0761H109.761V26.0204H104.033V27.6264H109.351V30.5707H104.033V32.1768H109.851V35.1211Z" fill="white"/>
</svg>
