<svg width="137" height="52" viewBox="0 0 137 52" fill="none" xmlns="http://www.w3.org/2000/svg">
<path d="M13.7509 29.1702V32.2491H8.9126V45.2129H5.30126V32.2491H0.462992V29.1702H13.7509ZM16.2454 45.2129V29.1702H27.0794V32.2028H19.8568V35.3512H26.2692V38.3143H19.8568V42.1803H27.6119V45.2129H16.2454ZM41.1994 45.2129C41.0297 44.6573 40.8368 44.0863 40.6207 43.4998C40.4201 42.9134 40.2194 42.3269 40.0188 41.7404H33.7684C33.5678 42.3269 33.3594 42.9134 33.1434 43.4998C32.9427 44.0863 32.7575 44.6573 32.5878 45.2129H28.8375C29.4394 43.4844 30.0105 41.8871 30.5506 40.4209C31.0908 38.9548 31.6155 37.5735 32.1248 36.2771C32.6495 34.9808 33.1588 33.7538 33.6527 32.5964C34.1619 31.4234 34.6867 30.2814 35.2268 29.1702H38.6761C39.2008 30.2814 39.7179 31.4234 40.2271 32.5964C40.7364 33.7538 41.2457 34.9808 41.755 36.2771C42.2797 37.5735 42.8122 38.9548 43.3523 40.4209C43.8925 41.8871 44.4635 43.4844 45.0654 45.2129H41.1994ZM36.8705 32.8047C36.7933 33.0362 36.6775 33.3526 36.5232 33.7538C36.3689 34.1551 36.1914 34.6181 35.9908 35.1428C35.7901 35.6675 35.5664 36.2463 35.3194 36.879C35.0879 37.5118 34.8487 38.1754 34.6018 38.8699H39.1623C38.9153 38.1754 38.6761 37.5118 38.4446 36.879C38.2131 36.2463 37.9893 35.6675 37.7733 35.1428C37.5727 34.6181 37.3952 34.1551 37.2408 33.7538C37.0865 33.3526 36.963 33.0362 36.8705 32.8047ZM69.3356 28.985C71.7277 28.985 73.5643 29.4094 74.8452 30.2582C76.1262 31.0916 76.7666 32.4652 76.7666 34.3789C76.7666 36.308 76.1184 37.7047 74.8221 38.569C73.5257 39.4178 71.6737 39.8422 69.2662 39.8422H68.1318V45.2129H64.5205V29.4017C65.3076 29.2474 66.141 29.1393 67.0206 29.0776C67.9003 29.0159 68.672 28.985 69.3356 28.985ZM69.5671 32.0639C69.3047 32.0639 69.0424 32.0716 68.78 32.0871C68.5331 32.1025 68.317 32.1179 68.1318 32.1334V36.7633H69.2662C70.5162 36.7633 71.4577 36.5935 72.0904 36.254C72.7232 35.9145 73.0395 35.2817 73.0395 34.3557C73.0395 33.9082 72.9547 33.5378 72.7849 33.2445C72.6306 32.9513 72.3991 32.7198 72.0904 32.5501C71.7972 32.3649 71.4345 32.2414 71.0024 32.1797C70.5703 32.1025 70.0918 32.0639 69.5671 32.0639ZM88.7511 45.2129C88.5813 44.6573 88.3884 44.0863 88.1723 43.4998C87.9717 42.9134 87.7711 42.3269 87.5704 41.7404H81.32C81.1194 42.3269 80.9111 42.9134 80.695 43.4998C80.4944 44.0863 80.3092 44.6573 80.1394 45.2129H76.3892C76.9911 43.4844 77.5621 41.8871 78.1023 40.4209C78.6424 38.9548 79.1671 37.5735 79.6764 36.2771C80.2011 34.9808 80.7104 33.7538 81.2043 32.5964C81.7136 31.4234 82.2383 30.2814 82.7785 29.1702H86.2278C86.7525 30.2814 87.2695 31.4234 87.7788 32.5964C88.2881 33.7538 88.7974 34.9808 89.3067 36.2771C89.8314 37.5735 90.3638 38.9548 90.904 40.4209C91.4441 41.8871 92.0152 43.4844 92.6171 45.2129H88.7511ZM84.4221 32.8047C84.3449 33.0362 84.2292 33.3526 84.0748 33.7538C83.9205 34.1551 83.743 34.6181 83.5424 35.1428C83.3418 35.6675 83.118 36.2463 82.8711 36.879C82.6396 37.5118 82.4004 38.1754 82.1534 38.8699H86.7139C86.467 38.1754 86.2278 37.5118 85.9963 36.879C85.7648 36.2463 85.541 35.6675 85.3249 35.1428C85.1243 34.6181 84.9468 34.1551 84.7925 33.7538C84.6382 33.3526 84.5147 33.0362 84.4221 32.8047ZM100.689 45.537C99.5621 45.537 98.5898 45.3827 97.7718 45.074C96.9539 44.7499 96.2748 44.3101 95.7347 43.7545C95.2099 43.1834 94.8164 42.5121 94.554 41.7404C94.3071 40.9534 94.1836 40.0891 94.1836 39.1477V29.1702H97.795V38.8467C97.795 39.4949 97.8644 40.0505 98.0033 40.5135C98.1577 40.9611 98.3583 41.3315 98.6052 41.6247C98.8676 41.9025 99.1762 42.1031 99.5312 42.2266C99.9016 42.3501 100.303 42.4118 100.735 42.4118C101.615 42.4118 102.325 42.1417 102.865 41.6016C103.42 41.0614 103.698 40.1431 103.698 38.8467V29.1702H107.309V39.1477C107.309 40.0891 107.178 40.9534 106.916 41.7404C106.654 42.5275 106.252 43.2066 105.712 43.7776C105.172 44.3332 104.485 44.7653 103.652 45.074C102.818 45.3827 101.831 45.537 100.689 45.537ZM115.332 42.4581C115.841 42.4581 116.258 42.4195 116.582 42.3423C116.921 42.2497 117.191 42.134 117.392 41.9951C117.592 41.8408 117.731 41.6633 117.809 41.4627C117.886 41.262 117.924 41.0382 117.924 40.7913C117.924 40.2666 117.677 39.8345 117.183 39.4949C116.69 39.14 115.841 38.7619 114.637 38.3606C114.112 38.1754 113.588 37.9671 113.063 37.7356C112.538 37.4886 112.067 37.1877 111.651 36.8327C111.234 36.4623 110.895 36.0225 110.632 35.5132C110.37 34.9885 110.239 34.3557 110.239 33.6149C110.239 32.8741 110.378 32.2105 110.655 31.6241C110.933 31.0222 111.327 30.5129 111.836 30.0962C112.345 29.6795 112.963 29.3631 113.688 29.1471C114.413 28.9156 115.231 28.7998 116.142 28.7998C117.222 28.7998 118.156 28.9156 118.943 29.1471C119.73 29.3786 120.378 29.6332 120.887 29.911L119.846 32.7584C119.398 32.5269 118.897 32.3263 118.341 32.1565C117.801 31.9713 117.145 31.8787 116.373 31.8787C115.509 31.8787 114.884 32.0022 114.498 32.2491C114.128 32.4806 113.943 32.8433 113.943 33.3371C113.943 33.6304 114.012 33.8773 114.151 34.0779C114.29 34.2786 114.483 34.4638 114.73 34.6335C114.992 34.7879 115.285 34.9345 115.609 35.0734C115.949 35.1968 116.319 35.328 116.72 35.4669C117.554 35.7756 118.279 36.0842 118.897 36.3929C119.514 36.6861 120.023 37.0334 120.424 37.4346C120.841 37.8359 121.15 38.3066 121.35 38.8467C121.551 39.3869 121.651 40.0428 121.651 40.8145C121.651 42.3115 121.127 43.4767 120.077 44.3101C119.028 45.128 117.446 45.537 115.332 45.537C114.622 45.537 113.981 45.4907 113.41 45.3981C112.839 45.3209 112.33 45.2206 111.882 45.0971C111.45 44.9737 111.072 44.8425 110.748 44.7036C110.439 44.5647 110.177 44.4335 109.961 44.3101L110.979 41.4395C111.458 41.7019 112.044 41.9411 112.739 42.1571C113.449 42.3578 114.313 42.4581 115.332 42.4581ZM124.604 45.2129V29.1702H135.438V32.2028H128.215V35.3512H134.627V38.3143H128.215V42.1803H135.97V45.2129H124.604Z" fill="#394132"/>
<path d="M69.659 18.6577C68.1654 20.3863 65.2777 24.2114 65.676 25.6835C66.1739 27.5236 77.7908 27.189 79.9483 20.8324C82.1057 14.4757 80.944 5.77705 76.4632 1.92958C71.9824 -1.91789 74.4717 7.28258 69.1611 9.45724C63.8505 11.6319 59.5357 15.8139 60.8633 20.4977C62.191 25.1816 64.8463 25.5162 63.6846 28.1927C62.5229 30.8692 59.5357 36.3895 60.5314 42.7461C61.5271 49.1028 57.5442 29.1964 50.4081 29.6982C43.272 30.2 52.3996 30.2 54.3911 34.3821C56.3825 38.5641 44.1019 36.0549 42.4423 29.6982C40.7828 23.3415 44.2678 17.1521 45.0976 16.9848C45.9274 16.8176 45.0976 21.3341 48.7486 21.6687C52.3996 22.0033 61.7907 28.964 57.5443 32.7093C56.2166 33.8802 54.3911 30.3673 59.5357 29.1964C64.0042 28.1793 65.0123 24.6917 65.0123 23.5088C65.0123 20.8324 67.9993 18.6577 69.659 18.6577Z" stroke="#B8CFA3" stroke-width="1.40433" stroke-linecap="round" stroke-linejoin="round"/>
</svg>
